Coordinates
version=1
nRows=24
nColumns=22
inDegrees=yes

Units are S.I. units (second, meters, Newtons, ...)
If the header above contains a line with 'inDegrees', this indicates whether rotational values are in degrees (yes) or radians (no).

endheader
time	pelvis_tilt	pelvis_list	pelvis_rotation	pelvis_tx	pelvis_ty	pelvis_tz	hip_flexion_r	hip_adduction_r	hip_rotation_r	knee_angle_r	ankle_angle_r	subtalar_angle_r	hip_flexion_l	hip_adduction_l	hip_rotation_l	knee_angle_l	ankle_angle_l	subtalar_angle_l	lumbar_extension	lumbar_bending	lumbar_rotation
      1.25000000	     -4.08511514	     -0.97254006	      2.91568311	     -1.02057115	      1.04828334	     -0.62847792	     30.88490451	      1.78897607	     -6.28185849	    -25.91470172	     10.35671265	     -0.38200150	     -3.74011009	      2.54952079	      1.32408057	    -12.63210257	     20.84207830	     -4.62987592	     -7.67733561	     -0.82976528	     -8.86679520
      1.26000000	     -4.09636011	     -1.24764911	      2.79211645	     -1.01483644	      1.04701418	     -0.62767616	     30.67526098	      2.30285429	     -6.61536722	    -24.19621895	     10.45659708	     -0.37154642	     -3.87436166	      2.22549526	      1.19906670	    -12.98715902	     21.25134307	     -4.71447534	     -7.68010513	     -0.56054431	     -8.80890937
      1.27000000	     -4.10426597	     -1.53539644	      2.65843566	     -1.00892116	      1.04570399	     -0.62680888	     30.46361811	      2.83848843	     -6.89572841	    -22.57135575	     10.60628178	     -0.37262841	     -4.01518711	      1.88599284	      1.06553293	    -13.35924308	     21.66372552	     -4.75600611	     -7.69018146	     -0.28010320	     -8.74641554
      1.28000000	     -4.17423954	     -1.81891567	      2.51286807	     -1.00289955	      1.04423327	     -0.62589036	     30.34250517	      3.37113812	     -7.11317003	    -21.08705730	     10.78226135	     -0.36992093	     -4.07225183	      1.55346618	      0.91752451	    -13.78576477	     22.08980629	     -4.80114908	     -7.63751056	     -0.00811685	     -8.66530869
      1.29000000	     -4.14803968	     -2.10647825	      2.38589503	     -0.99664981	      1.04289800	     -0.62496717	     30.10462796	      3.90156532	     -7.30625340	    -19.69564107	     10.93828974	     -0.41557339	     -4.27050487	      1.20732582	      0.78234032	    -14.16352017	     22.47225681	     -4.75175398	     -7.69982539	      0.27909330	     -8.65041967
      1.30000000	     -4.20904473	     -2.36878859	      2.25345197	     -0.99032146	      1.04135958	     -0.62400433	     30.00359367	      4.39499696	     -7.45283069	    -18.50522753	     11.09379068	     -0.46218052	     -4.36511552	      0.89104985	      0.65186411	    -14.58396169	     22.86209536	     -4.74747122	     -7.67318742	      0.53040350	     -8.61497425
      1.31000000	     -4.18465938	     -2.62118034	      2.15063609	     -0.98378948	      1.03994448	     -0.62309816	     29.81010310	      4.85622180	     -7.60376350	    -17.45339646	     11.19273566	     -0.60880572	     -4.58689794	      0.57907130	      0.54789927	    -14.96000845	     23.19753180	     -4.63691730	     -7.74774833	      0.79422953	     -8.65360196
      1.32000000	     -4.18979924	     -2.84486325	      2.06442872	     -0.97712937	      1.03845855	     -0.62218169	     29.68512659	      5.26306809	     -7.76344042	    -16.61697961	     11.22839722	     -0.81013685	     -4.78828611	      0.29357390	      0.46270212	    -15.33714922	     23.50639537	     -4.53136328	     -7.79754197	      1.02293561	     -8.71012251
      1.33000000	     -4.18326940	     -3.04269544	      1.99973504	     -0.97029768	      1.03699326	     -0.62129393	     29.57781359	      5.61295370	     -7.97065184	    -15.99589104	     11.17387929	     -1.09851938	     -5.02753090	      0.03101955	      0.39989300	    -15.68894596	     23.76935525	     -4.39401718	     -7.86196799	      1.23397882	     -8.81058612
      1.34000000	     -4.16377630	     -3.22661830	      1.96131635	     -0.96329362	      1.03557633	     -0.62043958	     29.48726321	      5.91287215	     -8.25827730	    -15.59804848	     11.00466963	     -1.48154116	     -5.29850110	     -0.22255509	      0.36757596	    -16.02780871	     23.97898695	     -4.22171964	     -7.94474085	      1.44145234	     -8.93865045
      1.35000000	     -4.12437666	     -3.37885903	      1.93655470	     -0.95607522	      1.03424241	     -0.61960848	     29.40347404	      6.14972521	     -8.62830368	    -15.42982292	     10.70171756	     -1.98864992	     -5.62650314	     -0.44885522	      0.33627358	    -16.32173727	     24.14175625	     -3.99801939	     -8.04633439	      1.62656212	     -9.11554029
      1.36000000	     -4.07409307	     -3.52201155	      1.92467252	     -0.94863894	      1.03301316	     -0.61880136	     29.32977203	      6.34247058	     -9.11296499	    -15.48066727	     10.23239674	     -2.61355270	     -5.98423434	     -0.66984100	      0.32924650	    -16.60453714	     24.22303808	     -3.72677951	     -8.15260995	      1.81530524	     -9.28620578
      1.37000000	     -4.02029065	     -3.65659803	      1.92857790	     -0.94094840	      1.03190487	     -0.61800147	     29.27031125	      6.48896993	     -9.70871688	    -15.74609130	      9.58435977	     -3.33841956	     -6.37436389	     -0.88893456	      0.33622372	    -16.85432465	     24.23967327	     -3.41691839	     -8.24775361	      2.00396126	     -9.49027028
      1.38000000	     -3.94608903	     -3.76154633	      1.92171714	     -0.93301445	      1.03098191	     -0.61718400	     29.19447116	      6.58521816	    -10.34182120	    -16.19766075	      8.75173315	     -4.23513499	     -6.80423610	     -1.08039953	      0.33063768	    -17.09253674	     24.11258156	     -3.01309207	     -8.35454888	      2.16959847	     -9.68424755
      1.39000000	     -3.88221592	     -3.87656861	      1.92969769	     -0.92481686	      1.03021830	     -0.61639190	     29.13337764	      6.64788225	    -11.07148476	    -16.81448524	      7.78012461	     -5.13007778	     -7.23278226	     -1.28371921	      0.36941712	    -17.33237933	     23.93392798	     -2.58676586	     -8.42682297	      2.35952617	     -9.88021550
      1.40000000	     -3.81793958	     -3.98632992	      1.92562747	     -0.91633572	      1.02967978	     -0.61557397	     29.05427793	      6.68558885	    -11.80183531	    -17.53781846	      6.72680668	     -6.03803957	     -7.67364699	     -1.48283228	      0.40309391	    -17.56822410	     23.63199738	     -2.08239418	     -8.47249149	      2.55243445	    -10.08051765
      1.41000000	     -3.75070328	     -4.09104323	      1.89599258	     -0.90761785	      1.02940191	     -0.61468453	     28.94496062	      6.71744160	    -12.45089484	    -18.31674022	      5.70030526	     -6.88138930	     -8.10708503	     -1.67749992	      0.41474961	    -17.83888173	     23.18913870	     -1.47856942	     -8.50232170	      2.74028967	    -10.25415653
      1.42000000	     -3.70625895	     -4.23756447	      1.88684985	     -0.89867814	      1.02936760	     -0.61379518	     28.82743581	      6.76802238	    -13.08409195	    -19.10257626	      4.82722829	     -7.49178742	     -8.48428088	     -1.91664419	      0.49484898	    -18.17355227	     22.65973885	     -0.83955225	     -8.48007921	      2.98504964	    -10.44717076
      1.43000000	     -3.66852945	     -4.39134227	      1.84367719	     -0.88955410	      1.02962626	     -0.61279405	     28.67143671	      6.85768944	    -13.54030097	    -19.84802053	      4.18195280	     -7.93735716	     -8.81512367	     -2.16381064	      0.54163192	    -18.58475406	     21.98344333	     -0.06293319	     -8.43386885	      3.23551509	    -10.62437565
      1.44000000	     -3.65202523	     -4.56859850	      1.79883103	     -0.88030116	      1.03014253	     -0.61171017	     28.48945097	      6.99750985	    -13.84791234	    -20.52205272	      3.81875882	     -8.17868290	     -9.05015839	     -2.43742501	      0.62248236	    -19.12537329	     21.18857633	      0.81200113	     -8.34974769	      3.50896963	    -10.78411128
      1.45000000	     -3.66473820	     -4.75689891	      1.75769972	     -0.87092475	      1.03090205	     -0.61054755	     28.28120821	      7.18627054	    -13.99277259	    -21.09951973	      3.70618791	     -8.27867987	     -9.17863063	     -2.72569530	      0.74091878	    -19.79235600	     20.25627875	      1.77460141	     -8.21643979	      3.79365378	    -10.96271779
      1.46000000	     -3.70324830	     -4.93820346	      1.71996491	     -0.86143995	      1.03187956	     -0.60931072	     28.03649890	      7.41308329	    -13.98116943	    -21.56690343	      3.78793605	     -8.32011011	     -9.19503709	     -3.00814592	      0.90836548	    -20.59813354	     19.18187573	      2.83456950	     -8.03938704	      4.06725963	    -11.14595341
      1.47000000	     -3.76268841	     -5.09519296	      1.68195038	     -0.85184451	      1.03304971	     -0.60801079	     27.74519724	      7.66162186	    -13.83789455	    -21.91718685	      4.00893730	     -8.36812883	     -9.10264695	     -3.26645060	      1.11685711	    -21.54306369	     17.94796304	      3.98986886	     -7.82182677	      4.31141030	    -11.32305012
      1.48000000	     -3.83431949	     -5.21592710	      1.64392530	     -0.84215252	      1.03438642	     -0.60663991	     27.39508976	      7.91827210	    -13.58965943	    -22.14814104	      4.31555489	     -8.46743635	     -8.90708345	     -3.48922062	      1.37036044	    -22.62569004	     16.56162410	      5.26253857	     -7.57453638	      4.50885083	    -11.48910303
